<mxfile host="app.diagrams.net" modified="2024-06-21T09:24:55.802Z" agent="Mozilla/5.0 (Macintosh; Intel Mac OS X 10_15_7) AppleWebKit/537.36 (KHTML, like Gecko) Chrome/125.0.0.0 Safari/537.36" version="24.2.2" etag="IpBr8Xkyw8CDKJy_2y2Y" type="github">
  <diagram name="第 1 页" id="LUkemv5Fgkjr7R-x9ejq">
    <mxGraphModel>
      <root>
        <mxCell id="0" />
        <mxCell id="1" parent="0" />
      </root>
    </mxGraphModel>
  </diagram>
</mxfile>
